<?xml version="1.0" encoding="utf-8"?>
<!-- Generator: Adobe Illustrator 18.1.1, SVG Export Plug-In . SVG Version: 6.00 Build 0)  -->
<svg version="1.1" xmlns="http://www.w3.org/2000/svg" xmlns:xlink="http://www.w3.org/1999/xlink" x="0px" y="0px"
	 viewBox="0 0 75 75" enable-background="new 0 0 75 75" xml:space="preserve">
<g id="Ebene_1" display="none">
	<path display="inline" fill="#FE5252" d="M53,1c3.4,0,6.7,0.8,9.7,2.4c4.5,2.4,8,5.9,10.1,10.6c1.3,3,2,6.1,1.9,9.3
		c0,2.6-0.5,5.1-1.5,7.6c-0.4,1.1-1.3,1.5-2.3,1.1c-0.8-0.3-1.2-1.2-0.9-2.2c0.6-1.7,1.1-3.5,1.2-5.3c0.2-2.4-0.1-4.8-0.8-7.1
		c-0.9-2.9-2.5-5.4-4.7-7.6c-1.8-1.8-3.9-3.1-6.2-4.1c-2.4-1-5-1.4-7.6-1.3c-1.1,0-2-0.7-2-1.6c0-1.2,0.7-1.8,2-1.8
		C52.2,1,52.6,1,53,1z"/>
	<path display="inline" fill="#FE5252" d="M23.1,2c0.8,0,1.6,0.1,2.4,0.1c1.3,0.1,2,0.8,1.9,2c-0.1,1-1,1.6-2.2,1.4
		c-1.6-0.2-3.2-0.2-4.9,0c-5.6,0.8-9.9,3.6-13.1,8.3c-2,2.9-2.9,6.1-3,9.6c-0.1,1.9,0.1,3.7,0.7,5.5c0.4,1.3-0.2,2.2-1.2,2.4
		c-1,0.2-1.7-0.3-2-1.4c-0.5-1.6-0.7-3.3-0.8-5c-0.1-2.7,0.2-5.4,1.1-7.9c1.5-4.3,3.9-7.9,7.6-10.6c3-2.3,6.4-3.7,10.1-4.3
		C20.7,2,21.9,1.9,23.1,2z"/>
	<path display="inline" fill="#FE5252" d="M7.6,24.3C7.7,20,9,16.4,11.8,13.5c3.8-3.9,8.5-5.4,14-4.5c0.8,0.1,1.3,0.5,1.5,1.4
		c0.2,0.7-0.2,1.2-0.7,1.7c-0.5,0.4-1,0.4-1.5,0.3c-5.4-0.8-10.1,1.4-12.7,6.2c-1.6,2.9-1.8,6-0.8,9.2c0.2,0.6,0.3,1.1,0,1.6
		c-0.3,0.6-0.8,1-1.6,1c-0.8-0.1-1.3-0.5-1.5-1.1C7.9,27.6,7.6,25.8,7.6,24.3z"/>
	<path display="inline" fill="#FE5252" d="M52.5,7.8c5.9-0.1,11.8,3.8,14.1,9.3c1.7,4.1,1.6,8.1,0,12.1c-0.3,0.7-0.8,1.3-1.6,1.4
		c-0.8,0.1-1.3-0.3-1.6-1c-0.3-0.6-0.2-1.1,0.1-1.6c1.2-2.9,1.3-5.8,0.4-8.7c-1.4-4.3-5.9-7.7-10.4-7.9c-0.7,0-1.4,0-2.1,0
		c-1.1,0.1-2-0.6-2-1.6c-0.1-1,0.6-1.7,1.7-1.8C51.5,7.8,52,7.8,52.5,7.8z"/>
	<path display="inline" fill="#FE5252" d="M37.8,75c-1.7,0-3.4,0-5,0c-0.5,0-0.7-0.1-0.7-0.6c0-1.4,0-2.9,0-4.3
		c0-0.5,0.2-0.6,0.7-0.6c3.4,0,6.8,0,10.1,0c0.5,0,0.6,0.1,0.6,0.6c0,1.5,0,2.9,0,4.4c0,0.5-0.2,0.6-0.6,0.6
		C41.2,75,39.5,75,37.8,75z"/>
	<path display="inline" fill="#FE5252" d="M63.4,65.7c-0.1-1.4,0-2.8,0-4.3c0-0.5-0.1-0.6-0.6-0.6c-1.4,0-2.8,0-4.2,0
		c-0.8,0-1-0.1-1-1c0-7.2,0-14.3,0-21.5c0-3.3-0.6-6.4-2.2-9.3c-3-5.8-7.8-9.3-14.2-10.6c-0.5-0.1-0.7-0.3-0.7-0.8
		c0-0.6,0-1.2,0-1.9c0-0.4-0.1-0.5-0.5-0.5c-1.6,0-3.2,0-4.7,0c-0.3,0-0.5,0.1-0.4,0.5c0,0.7,0,1.3,0,2c0,0.4-0.1,0.6-0.6,0.7
		c-1,0.1-1.9,0.4-2.9,0.7c-8,2.6-13.6,10.1-13.6,18.5c-0.1,7.4,0,14.9,0,22.3c0,0.7-0.2,0.9-0.9,0.8c-1.4-0.1-2.8,0-4.3,0
		c-0.5,0-0.6,0.1-0.6,0.6c0,1.4,0.1,2.8,0,4.2c0,0.8,0.2,0.9,0.9,0.9c8.2,0,16.4,0,24.6,0c8.3,0,16.5,0,24.8,0
		C63.2,66.6,63.4,66.5,63.4,65.7z M51.2,60.9c-4.5,0-9,0-13.5,0c-4.5,0-8.9,0-13.4,0c-0.6,0-0.8-0.1-0.8-0.8c0-7.3,0-14.6,0-21.9
		c0-8.4,7-14.8,15.4-14.2c7.3,0.6,13,6.8,13,14.3c0,7.3,0,14.6,0,21.9C52,60.7,51.9,60.9,51.2,60.9z"/>
</g>
<g id="Ebene_2" display="none">
	<path display="inline" fill="#FE5252" d="M62.8,42.7c-1.2-4.8-3.2-9.3-5.5-13.7c-5.3-10.2-12-19.5-19.1-28.6
		c-0.5-0.6-0.7-0.4-1.1,0.1c-3.2,4-6.2,8.1-9.1,12.2c-5.3,7.7-10.2,15.6-13.7,24.4c-1.5,3.7-2.6,7.5-2.6,11.6
		c0.2,6.7,2.4,12.6,6.9,17.4c6,6.3,13.4,9,22,8.1c6.6-0.7,12.2-3.6,16.5-8.7C62.9,58.9,64.9,51.3,62.8,42.7z M35,13.7
		c-0.6,3.2-1.7,6.4-2.6,9.5c-1.7,5.8-3.5,11.6-4.8,17.5c-1.5,6.8-1.3,13.4,0.6,20.1c0.5,1.6,0.9,3.3,1.5,5c-1.8-0.8-3.3-1.9-4.6-3.1
		c-3.6-3.3-5.5-7.4-6.2-12.2c-0.6-3.9,0.1-7.6,1.6-11.2c1.9-4.6,4.4-8.9,7-13.2c2.5-4.3,5.1-8.6,7.4-13C35.2,13.2,35,13.5,35,13.7z"
		/>
</g>
<g id="Ebene_3" display="none">
	<path display="inline" fill="#FE5252" d="M74.2,5.2c0-1.1-0.8-1.9-1.9-1.9c-16.7,0-33.4,0-50.1,0c-0.6,0-1.2,0.1-1.7,0.5
		c-1.6,1.2-3.2,2.4-4.7,3.6C11.1,10.9,6.5,14.5,1.9,18c-0.7,0.5-1.1,1.1-1.1,2c0,16.8,0,33.7,0,50.5c0,1.6,1.1,2.4,2.5,2.4
		c8.9,0,17.9,0,26.8,0c9,0,18.1,0,27.1,0c0.8,0,1.5-0.2,2-0.8c1.2-1.4,2.3-2.9,3.5-4.3c3.3-4.2,6.7-8.3,10-12.5
		c0.6-0.8,1.4-1.5,1.4-2.7C74.2,36.8,74.2,21,74.2,5.2z M12.7,14.6c3-2.3,6-4.5,8.9-6.8C22.3,7.2,23,7,23.8,7C29.4,7,35,7,40.6,7
		c0.3,0,0.6,0,1.1,0c-2.5,2.2-4.8,4.2-7.1,6.2c-1.3,1.2-2.7,2.4-4,3.6c-0.7,0.7-1.5,1.1-2.6,1.1c-6.5-0.1-12.9,0-19.6,0
		C10,16.7,11.3,15.6,12.7,14.6z M54.8,69.2c-8.2,0-16.4,0-24.7,0c-8.2,0-16.4,0-24.6,0c-0.8,0-1-0.2-1-1c0-15.2,0-30.4,0-45.7
		c0-0.7,0.2-0.9,0.9-0.9c16.4,0,32.9,0,49.3,0c0.8,0,0.9,0.2,0.9,0.9c0,15.2,0,30.4,0,45.7C55.8,69,55.6,69.2,54.8,69.2z M57.2,17.4
		c-0.3,0.3-0.6,0.5-1.1,0.5c-6.8,0-13.6,0-20.4,0c-0.1,0-0.2,0-0.6,0c2.1-1.8,4-3.5,6-5.2c1.2-1.1,2.5-2.2,3.7-3.3
		c0.8-0.7,1.5-1.4,2.3-2.1C47.4,7,47.6,7,47.9,7c6.5,0,12.9,0,19.4,0c0,0,0.1,0,0.2,0.1c0,0.3-0.3,0.4-0.4,0.5
		C63.8,10.9,60.5,14.1,57.2,17.4z M69.4,53.3c-3.2,3.9-6.3,7.9-9.5,11.8c-0.1,0.1-0.2,0.2-0.3,0.3c-0.2-0.2-0.1-0.5-0.1-0.7
		c0-14.4,0-28.9,0-43.3c0-0.4,0-0.7,0.3-1.1c3.5-3.5,7-6.9,10.6-10.6c0,0.5,0,0.8,0,1.1c0,13.1,0,26.2,0,39.3
		C70.4,51.4,70.2,52.4,69.4,53.3z"/>
	<path display="inline" fill="#FE5252" d="M30.1,32.7c-2.9,0-5.8,0-8.7,0c-0.8,0-1.6-0.2-2-1c-0.6-1.3-0.1-2.8,1.9-2.9
		c0.1,0,0.2,0,0.4,0c5.7,0,11.5,0,17.2,0c0.8,0,1.6,0.1,2,0.9c0.8,1.6-0.1,3-1.9,3C36,32.8,33.1,32.7,30.1,32.7z"/>
</g>
<g id="Ebene_4" display="none">
	<path display="inline" fill="#FE5252" d="M74.3,20.3c-0.4,0.8-1.1,1.4-1.7,2C58.4,36.5,44.1,50.7,29.9,64.9c-1.4,1.4-2.5,1.3-3.9,0
		C17.7,56.7,9.7,48.2,1.6,39.7c-0.4-0.4-0.6-0.9-0.9-1.4c0-0.4,0-0.8,0-1.1c0.9-1.6,2.5-2.5,3.7-3.7c1.1-1.1,2.3-2,3.4-3.1
		c1.3-1.2,2.5-1.2,3.7,0.1c4.8,4.9,9.6,9.7,14.3,14.6c1.4,1.4,2.6,1.4,4,0c11.2-11.1,22.4-22.3,33.5-33.4c1.4-1.4,2.6-1.4,4,0
		c1.8,1.8,3.6,3.7,5.5,5.5c0.5,0.5,1,1.1,1.3,1.8C74.3,19.5,74.3,19.9,74.3,20.3z"/>
</g>
<g id="Ebene_5">
	<path fill="#FE5252" d="M54.6,7c0-4.2-2.5-6.9-6.6-7c-8-0.1-16-0.1-23.9,0c-3.5,0-6,2.3-6.5,5.6c-0.1,0.6-0.1,1.3-0.1,1.9
		c0,19.9,0,39.8,0,59.8c0,0.4,0,0.9,0,1.3c0.1,2.8,1.6,4.8,4.2,5.7c0.9,0.3,1.9,0.5,2.9,0.5c7.6,0,15.1,0,22.7,0
		c4.8,0,7.3-2.5,7.3-7.3c0-10,0-20,0-30.1C54.6,27.3,54.6,17.2,54.6,7z M31.9,3.4c1.4,0,2.8,0,4.2,0c1.4,0,2.7,0,4.1,0
		c0.7,0,1,0.2,0.9,0.9c0,0.6-0.3,0.8-0.9,0.8c-2.8,0-5.5,0-8.3,0c-0.6,0-0.9-0.2-0.9-0.8C31,3.7,31.3,3.4,31.9,3.4z M36.1,72
		c-1.9,0-3.4-1.6-3.4-3.5c0-1.8,1.6-3.4,3.4-3.4c1.8,0,3.3,1.6,3.3,3.4C39.4,70.4,37.9,72,36.1,72z M51.3,35.7c0,8.7,0,17.5,0,26.2
		c0,0.7-0.1,0.9-0.9,0.9c-9.6,0-19.1,0-28.7,0c-0.7,0-0.9-0.1-0.9-0.8c0-17.5,0-35,0-52.5c0-0.8,0.2-1,1-1c9.5,0,19,0,28.5,0
		c0.8,0,1,0.2,1,1C51.3,18.2,51.3,26.9,51.3,35.7z"/>
</g>
</svg>
